<svg viewBox="0 0 96 96" xmlns="http://www.w3.org/2000/svg">
  <defs>
    <style>
      .cn-logo-swoosh { fill: #2563eb; }
      .cn-logo-arc { fill: #1e40af; }
      .cn-logo-leaf { fill: #10b981; }
      .cn-logo-roof { fill: #3b82f6; }
      .cn-logo-chimney { fill: #1f2937; }
      .cn-logo-window { fill: #60a5fa; }
      .cn-logo-washer { fill: #f3f4f6; stroke: #1f2937; stroke-width: 1; }
      .cn-logo-washer-door { fill: #ef4444; }
      .cn-logo-broom { fill: #1f2937; }
      .cn-logo-towel-orange { fill: #fb923c; }
      .cn-logo-towel-green { fill: #10b981; }
    </style>
  </defs>
  <path class="cn-logo-swoosh" d="M13 62c10 19 32 28 55 21 9-3 16-8 21-15-9 29-47 36-70 14-5-5-8-12-6-20Z" />
  <path class="cn-logo-arc" d="M16 32c18-21 48-25 70-7" />
  <path class="cn-logo-leaf" d="M74 22c10-9 17-9 20-9-1 8-4 16-13 20-4-3-6-7-7-11Z" />
  <path class="cn-logo-roof" d="M18 48 48 25l31 23" />
  <path class="cn-logo-chimney" d="M27 39V25h8v8" />
  <rect class="cn-logo-window" x="45" y="38" width="5" height="5" />
  <rect class="cn-logo-window" x="53" y="38" width="5" height="5" />
  <rect class="cn-logo-window" x="45" y="46" width="5" height="5" />
  <rect class="cn-logo-window" x="53" y="46" width="5" height="5" />
  <rect class="cn-logo-washer" x="24" y="52" width="20" height="26" rx="3" />
  <circle class="cn-logo-washer-door" cx="34" cy="66" r="7" />
  <path class="cn-logo-broom" d="M69 48 66 70M59 72h15l-5 11H55l4-11Z" />
  <rect class="cn-logo-towel-orange" x="47" y="59" width="20" height="6" rx="3" />
  <rect class="cn-logo-towel-green" x="47" y="68" width="24" height="6" rx="3" />
  <rect class="cn-logo-towel-green" x="47" y="77" width="21" height="6" rx="3" />
</svg>