<svg viewBox="0 0 1200 630" xmlns="http://www.w3.org/2000/svg">
  <!-- Background -->
  <rect width="1200" height="630" fill="#ffffff"/>
  
  <!-- Subtle gradient background -->
  <defs>
    <linearGradient id="bgGradient" x1="0%" y1="0%" x2="100%" y2="100%">
      <stop offset="0%" style="stop-color:#f8f9fa;stop-opacity:1" />
      <stop offset="100%" style="stop-color:#e9ecef;stop-opacity:1" />
    </linearGradient>
  </defs>
  <rect width="1200" height="630" fill="url(#bgGradient)"/>
  
  <!-- Logo Mark (larger) -->
  <g transform="translate(80, 80) scale(5.5)">
    <svg viewBox="0 0 96 96" width="96" height="96">
      <path fill="#006a3a" d="M13 62c10 19 32 28 55 21 9-3 16-8 21-15-9 29-47 36-70 14-5-5-8-12-6-20Z" />
      <path fill="#61a83a" d="M16 32c18-21 48-25 70-7" />
      <path fill="#61a83a" d="M74 22c10-9 17-9 20-9-1 8-4 16-13 20-4-3-6-7-7-11Z" />
      <path fill="#006a3a" d="M18 48 48 25l31 23" />
      <path fill="#006a3a" d="M27 39V25h8v8" />
      <rect fill="#006a3a" x="45" y="38" width="5" height="5" />
      <rect fill="#006a3a" x="53" y="38" width="5" height="5" />
      <rect fill="#006a3a" x="45" y="46" width="5" height="5" />
      <rect fill="#006a3a" x="53" y="46" width="5" height="5" />
      <rect fill="#f3f4f6" stroke="#006a3a" stroke-width="1" x="24" y="52" width="20" height="26" rx="3" />
      <circle fill="#f39a18" cx="34" cy="66" r="7" />
      <path fill="#006a3a" d="M69 48 66 70M59 72h15l-5 11H55l4-11Z" />
      <rect fill="#f39a18" x="47" y="59" width="20" height="6" rx="3" />
      <rect fill="#61a83a" x="47" y="68" width="24" height="6" rx="3" />
      <rect fill="#61a83a" x="47" y="77" width="21" height="6" rx="3" />
    </svg>
  </g>
  
  <!-- Text Section -->
  <g transform="translate(620, 180)">
    <!-- Brand Name -->
    <text x="0" y="0" font-family="system-ui, -apple-system, sans-serif" font-size="120" font-weight="700" fill="#006a3a">
      Care<tspan fill="#61a83a">Nest</tspan>
    </text>
    
    <!-- Tagline -->
    <text x="0" y="100" font-family="system-ui, -apple-system, sans-serif" font-size="56" font-weight="400" fill="#0b4d32">
      Your home, cared for.
    </text>
    
    <!-- Description -->
    <text x="0" y="180" font-family="system-ui, -apple-system, sans-serif" font-size="40" fill="#006a3a">
      Home services in one trusted app
    </text>
  </g>
</svg>